<svg width="2048" height="2048" viewBox="0 0 2048 2048" fill="none" xmlns="http://www.w3.org/2000/svg">
<path d="M1052.04 363.201L1621.91 684.134C1637.64 692.994 1647.37 709.646 1647.37 727.701V1365.3C1647.37 1383.35 1637.64 1400.01 1621.91 1408.87L1052.04 1729.8C1036.8 1738.38 1018.2 1738.38 1002.96 1729.8L433.094 1408.87C417.363 1400.01 407.629 1383.35 407.629 1365.3V727.701C407.629 709.646 417.363 692.994 433.094 684.134L1002.96 363.201C1018.2 354.623 1036.8 354.623 1052.04 363.201Z" stroke="#FF8150" stroke-width="100"/>
<path d="M774 1391.5V1013.32C774 900.383 799.616 700 1024 700C1248.38 700 1299.15 910.019 1274 1013.32C1253.5 1097.5 1195 1210.5 1021.54 1173.72" stroke="#FF8150" stroke-width="100" stroke-linecap="round"/>
<circle cx="1024.5" cy="953.5" r="70.5" fill="#FF8150"/>
</svg>
