<svg width="2048" height="2048" viewBox="0 0 2048 2048" fill="none" xmlns="http://www.w3.org/2000/svg">
<path d="M1052.04 363.201L1621.91 684.134C1637.64 692.994 1647.37 709.646 1647.37 727.701V1365.3C1647.37 1383.35 1637.64 1400.01 1621.91 1408.87L1052.04 1729.8C1036.8 1738.38 1018.2 1738.38 1002.96 1729.8L433.094 1408.87C417.363 1400.01 407.629 1383.35 407.629 1365.3V727.701C407.629 709.646 417.363 692.994 433.094 684.134L1002.96 363.201C1018.2 354.623 1036.8 354.623 1052.04 363.201Z" stroke="#FF8150" stroke-width="100"/>
<path d="M774 1391.5V1013.32C774 900.383 799.616 700 1024 700C1248.38 700 1299.15 910.019 1274 1013.32C1253.5 1097.5 1195 1210.5 1021.54 1173.72" stroke="#FF8150" stroke-width="100" stroke-linecap="round"/>
<circle cx="1024.5" cy="953.5" r="70.5" fill="#FF8150"/>
<g filter="url(#filter0_d_101_14)">
<path d="M362 1289C362 1277.95 370.954 1269 382 1269H1670.18C1681.22 1269 1690.18 1277.95 1690.18 1289V1766.08C1690.18 1777.12 1681.22 1786.08 1670.18 1786.08H382C370.954 1786.08 362 1777.12 362 1766.08V1289Z" fill="#FF8150"/>
<path d="M382 1274H1670.18C1678.46 1274 1685.18 1280.72 1685.18 1289V1766.08C1685.18 1774.36 1678.46 1781.08 1670.18 1781.08H382C373.716 1781.08 367 1774.36 367 1766.08V1289C367 1280.72 373.716 1274 382 1274Z" stroke="#FF8150" stroke-width="10" stroke-linejoin="round"/>
</g>
<path d="M605.893 1546.82H552.596V1518.84H605.893C615.174 1518.84 622.674 1517.34 628.393 1514.34C634.112 1511.34 638.283 1507.21 640.908 1501.96C643.627 1496.62 644.987 1490.53 644.987 1483.68C644.987 1477.21 643.627 1471.17 640.908 1465.54C638.283 1459.82 634.112 1455.23 628.393 1451.76C622.674 1448.29 615.174 1446.56 605.893 1446.56H563.424V1623.18H528.127V1418.43H605.893C621.737 1418.43 635.19 1421.24 646.252 1426.87C657.408 1432.4 665.893 1440.09 671.705 1449.93C677.518 1459.68 680.424 1470.84 680.424 1483.4C680.424 1496.62 677.518 1507.96 671.705 1517.43C665.893 1526.9 657.408 1534.17 646.252 1539.23C635.19 1544.29 621.737 1546.82 605.893 1546.82ZM742.721 1499.99V1623.18H708.83V1471.03H741.174L742.721 1499.99ZM789.268 1470.04L788.987 1501.54C786.924 1501.17 784.674 1500.88 782.237 1500.7C779.893 1500.51 777.549 1500.42 775.205 1500.42C769.393 1500.42 764.283 1501.26 759.877 1502.95C755.471 1504.54 751.768 1506.88 748.768 1509.98C745.862 1512.98 743.612 1516.63 742.018 1520.95C740.424 1525.26 739.487 1530.09 739.205 1535.43L731.471 1535.99C731.471 1526.43 732.408 1517.57 734.283 1509.42C736.158 1501.26 738.971 1494.09 742.721 1487.9C746.565 1481.71 751.346 1476.88 757.065 1473.42C762.877 1469.95 769.58 1468.21 777.174 1468.21C779.237 1468.21 781.44 1468.4 783.783 1468.78C786.221 1469.15 788.049 1469.57 789.268 1470.04ZM874.768 1625.99C863.518 1625.99 853.346 1624.17 844.252 1620.51C835.252 1616.76 827.565 1611.56 821.19 1604.9C814.908 1598.24 810.08 1590.42 806.705 1581.42C803.33 1572.42 801.643 1562.71 801.643 1552.31V1546.68C801.643 1534.78 803.377 1523.99 806.846 1514.34C810.315 1504.68 815.143 1496.43 821.33 1489.59C827.518 1482.65 834.83 1477.35 843.268 1473.7C851.705 1470.04 860.846 1468.21 870.69 1468.21C881.565 1468.21 891.08 1470.04 899.237 1473.7C907.393 1477.35 914.143 1482.51 919.487 1489.17C924.924 1495.73 928.955 1503.56 931.58 1512.65C934.299 1521.74 935.658 1531.78 935.658 1542.74V1557.23H818.096V1532.9H902.19V1530.23C902.002 1524.13 900.783 1518.42 898.533 1513.07C896.377 1507.73 893.049 1503.42 888.549 1500.13C884.049 1496.85 878.049 1495.21 870.549 1495.21C864.924 1495.21 859.908 1496.43 855.502 1498.87C851.19 1501.21 847.58 1504.63 844.674 1509.13C841.768 1513.63 839.518 1519.07 837.924 1525.45C836.424 1531.73 835.674 1538.81 835.674 1546.68V1552.31C835.674 1558.96 836.565 1565.15 838.346 1570.87C840.221 1576.49 842.94 1581.42 846.502 1585.63C850.065 1589.85 854.377 1593.18 859.44 1595.62C864.502 1597.96 870.268 1599.13 876.737 1599.13C884.893 1599.13 892.158 1597.49 898.533 1594.21C904.908 1590.93 910.44 1586.29 915.127 1580.29L932.987 1597.59C929.705 1602.37 925.44 1606.96 920.19 1611.37C914.94 1615.68 908.518 1619.2 900.924 1621.92C893.424 1624.63 884.705 1625.99 874.768 1625.99ZM1009.63 1596.32L1046.89 1471.03H1082.05L1029.17 1623.18H1007.24L1009.63 1596.32ZM981.08 1471.03L1019.05 1596.88L1020.88 1623.18H998.94L945.783 1471.03H981.08ZM1139.28 1471.03V1623.18H1105.25V1471.03H1139.28ZM1103 1431.09C1103 1425.93 1104.69 1421.67 1108.06 1418.29C1111.53 1414.82 1116.31 1413.09 1122.41 1413.09C1128.41 1413.09 1133.14 1414.82 1136.61 1418.29C1140.08 1421.67 1141.81 1425.93 1141.81 1431.09C1141.81 1436.15 1140.08 1440.37 1136.61 1443.74C1133.14 1447.12 1128.41 1448.81 1122.41 1448.81C1116.31 1448.81 1111.53 1447.12 1108.06 1443.74C1104.69 1440.37 1103 1436.15 1103 1431.09ZM1243.49 1625.99C1232.24 1625.99 1222.06 1624.17 1212.97 1620.51C1203.97 1616.76 1196.28 1611.56 1189.91 1604.9C1183.63 1598.24 1178.8 1590.42 1175.42 1581.42C1172.05 1572.42 1170.36 1562.71 1170.36 1552.31V1546.68C1170.36 1534.78 1172.1 1523.99 1175.56 1514.34C1179.03 1504.68 1183.86 1496.43 1190.05 1489.59C1196.24 1482.65 1203.55 1477.35 1211.99 1473.7C1220.42 1470.04 1229.56 1468.21 1239.41 1468.21C1250.28 1468.21 1259.8 1470.04 1267.96 1473.7C1276.11 1477.35 1282.86 1482.51 1288.21 1489.17C1293.64 1495.73 1297.67 1503.56 1300.3 1512.65C1303.02 1521.74 1304.38 1531.78 1304.38 1542.74V1557.23H1186.81V1532.9H1270.91V1530.23C1270.72 1524.13 1269.5 1518.42 1267.25 1513.07C1265.1 1507.73 1261.77 1503.42 1257.27 1500.13C1252.77 1496.85 1246.77 1495.21 1239.27 1495.21C1233.64 1495.21 1228.63 1496.43 1224.22 1498.87C1219.91 1501.21 1216.3 1504.63 1213.39 1509.13C1210.49 1513.63 1208.24 1519.07 1206.64 1525.45C1205.14 1531.73 1204.39 1538.81 1204.39 1546.68V1552.31C1204.39 1558.96 1205.28 1565.15 1207.06 1570.87C1208.94 1576.49 1211.66 1581.42 1215.22 1585.63C1218.78 1589.85 1223.1 1593.18 1228.16 1595.62C1233.22 1597.96 1238.99 1599.13 1245.46 1599.13C1253.61 1599.13 1260.88 1597.49 1267.25 1594.21C1273.63 1590.93 1279.16 1586.29 1283.85 1580.29L1301.71 1597.59C1298.42 1602.37 1294.16 1606.96 1288.91 1611.37C1283.66 1615.68 1277.24 1619.2 1269.64 1621.92C1262.14 1624.63 1253.42 1625.99 1243.49 1625.99ZM1372.16 1589.43L1407.31 1471.03H1428.97L1423.06 1506.46L1387.63 1623.18H1368.22L1372.16 1589.43ZM1351.49 1471.03L1378.91 1589.99L1381.16 1623.18H1359.5L1318.3 1471.03H1351.49ZM1461.88 1588.59L1488.46 1471.03H1521.5L1480.44 1623.18H1458.78L1461.88 1588.59ZM1432.63 1471.03L1467.36 1588.03L1471.72 1623.18H1452.31L1416.46 1506.32L1410.55 1471.03H1432.63Z" fill="white"/>
<defs>
<filter id="filter0_d_101_14" x="358" y="1269" width="1336.18" height="525.076" filterUnits="userSpaceOnUse" color-interpolation-filters="sRGB">
<feFlood flood-opacity="0" result="BackgroundImageFix"/>
<feColorMatrix in="SourceAlpha" type="matrix" values="0 0 0 0 0 0 0 0 0 0 0 0 0 0 0 0 0 0 127 0" result="hardAlpha"/>
<feOffset dy="4"/>
<feGaussianBlur stdDeviation="2"/>
<feComposite in2="hardAlpha" operator="out"/>
<feColorMatrix type="matrix" values="0 0 0 0 0 0 0 0 0 0 0 0 0 0 0 0 0 0 0.25 0"/>
<feBlend mode="normal" in2="BackgroundImageFix" result="effect1_dropShadow_101_14"/>
<feBlend mode="normal" in="SourceGraphic" in2="effect1_dropShadow_101_14" result="shape"/>
</filter>
</defs>
</svg>
