<svg xmlns="http://www.w3.org/2000/svg" width="412.334" height="350" style="width:412.334px;height:350px;cursor:default"><path d="M0 0h412.334v350H0z" fill="#F9F9F9"/><text alignment-baseline="central" text-anchor="middle" x="160" y="20" font-size="16" font-family="sans-serif" font-weight="bold" paint-order="stroke" style="stroke-linecap:butt;stroke-linejoin:miter">Bag of Fruits</text><path d="M160 190h150a150 150 0 0 1-262.277 99.468z" stroke="#333" fill="#ecb3b2"/><text alignment-baseline="central" text-anchor="middle" x="186.595" y="260.126" font-size="12" font-family="sans-serif" paint-order="stroke" style="stroke-linecap:butt;stroke-linejoin:miter">38%</text><path d="M330 40h20v20h-20z" fill="#ecb3b2"/><text alignment-baseline="before-edge" text-anchor="left" x="355" y="40" font-size="14" font-family="sans-serif" paint-order="stroke" style="stroke-linecap:butt;stroke-linejoin:miter">apple</text><path d="M160 190 47.723 289.468A150 150 2.417 0 1 245.21 66.552z" stroke="#333" fill="#efc9b3"/><text alignment-baseline="central" text-anchor="middle" x="103.862" y="140.266" font-size="12" font-family="sans-serif" paint-order="stroke" style="stroke-linecap:butt;stroke-linejoin:miter">46%</text><path d="M330 65h20v20h-20z" fill="#efc9b3"/><text alignment-baseline="before-edge" text-anchor="left" x="355" y="65" font-size="14" font-family="sans-serif" paint-order="stroke" style="stroke-linecap:butt;stroke-linejoin:miter">peach</text><path d="m160 190 85.21-123.448A150 150 5.317 0 1 310 190z" stroke="#333" fill="#f5f6b8"/><text alignment-baseline="central" text-anchor="middle" x="226.409" y="155.146" font-size="12" font-family="sans-serif" paint-order="stroke" style="stroke-linecap:butt;stroke-linejoin:miter">15%</text><path d="M330 90h20v20h-20z" fill="#f5f6b8"/><text alignment-baseline="before-edge" text-anchor="left" x="355" y="90" font-size="14" font-family="sans-serif" paint-order="stroke" style="stroke-linecap:butt;stroke-linejoin:miter">banana</text></svg>